<svg width="40" height="40" viewBox="0 0 40 40" fill="none" xmlns="http://www.w3.org/2000/svg">
<path d="M19.5331 24.5691C18.7823 24.5691 18.1597 23.9465 18.1597 23.1957V14.0395C18.1597 13.2887 18.7823 12.6661 19.5331 12.6661C20.2839 12.6661 20.9065 13.2887 20.9065 14.0395V23.1957C20.9065 23.9465 20.2839 24.5691 19.5331 24.5691Z" fill="#830000"/>
<path d="M19.5334 30.5208C19.4235 30.5208 19.2953 30.5024 19.1671 30.4841C19.0573 30.4658 18.9474 30.4292 18.8375 30.3743C18.7276 30.3376 18.6178 30.2827 18.5079 30.2094C18.4163 30.1362 18.3248 30.0629 18.2332 29.9897C17.9036 29.6418 17.7021 29.1656 17.7021 28.6895C17.7021 28.2134 17.9036 27.7373 18.2332 27.3893C18.3248 27.3161 18.4163 27.2428 18.5079 27.1696C18.6178 27.0963 18.7276 27.0414 18.8375 27.0048C18.9474 26.9498 19.0573 26.9132 19.1671 26.8949C19.4052 26.84 19.6616 26.84 19.8813 26.8949C20.0095 26.9132 20.1194 26.9498 20.2293 27.0048C20.3391 27.0414 20.449 27.0963 20.5589 27.1696C20.6504 27.2428 20.742 27.3161 20.8336 27.3893C21.1632 27.7373 21.3646 28.2134 21.3646 28.6895C21.3646 29.1656 21.1632 29.6418 20.8336 29.9897C20.742 30.0629 20.6504 30.1362 20.5589 30.2094C20.449 30.2827 20.3391 30.3376 20.2293 30.3743C20.1194 30.4292 20.0095 30.4658 19.8813 30.4841C19.7714 30.5024 19.6433 30.5208 19.5334 30.5208Z" fill="#830000"/>
<path d="M30.5321 39.0664H8.52676C4.98629 39.0664 2.28101 37.7014 0.901137 35.2405C-0.460581 32.7796 -0.279019 29.6074 1.44582 26.3198L12.4485 5.36394C14.2641 1.90333 16.7697 0 19.5294 0C22.2892 0 24.7948 1.90333 26.6104 5.36394L37.6131 26.3391C39.3379 29.6266 39.5376 32.7796 38.1578 35.2597C36.7779 37.7014 34.0726 39.0664 30.5321 39.0664ZM19.5294 2.88384C17.8228 2.88384 16.1524 4.26808 14.827 6.76741L3.84245 27.7425C2.60782 30.0881 2.40811 32.2413 3.26145 33.7986C4.11479 35.3559 6.00304 36.2018 8.54492 36.2018H30.5503C33.0922 36.2018 34.9623 35.3559 35.8338 33.7986C36.7053 32.2413 36.4874 30.1073 35.2528 27.7425L24.2319 6.76741C22.9065 4.26808 21.2361 2.88384 19.5294 2.88384Z" fill="#830000"/>
</svg>
