<svg width="40" height="40" viewBox="0 0 40 40" fill="none" xmlns="http://www.w3.org/2000/svg">
<rect x="1.46484" y="7.32484" width="36.1359" height="24.4162" rx="2.44162" stroke="#0F4493" stroke-width="2.92994"/>
<mask id="path-2-inside-1_55_9564" fill="white">
<path d="M19.5332 10.9873C22.9042 10.9876 25.6367 14.8137 25.6367 19.5332C25.6366 24.2525 22.9041 28.0787 19.5332 28.0791C16.1621 28.0791 13.4288 24.2527 13.4287 19.5332C13.4287 14.8135 16.162 10.9873 19.5332 10.9873ZM19.3184 14.6494L16.1143 16.3759V16.4316L16.5 17.6377H16.5674L18.832 16.7392V22.7549H16.5674V24.416H22.7168V22.7549H20.6426V14.6494H19.3184Z"/>
</mask>
<path d="M19.5332 10.9873C22.9042 10.9876 25.6367 14.8137 25.6367 19.5332C25.6366 24.2525 22.9041 28.0787 19.5332 28.0791C16.1621 28.0791 13.4288 24.2527 13.4287 19.5332C13.4287 14.8135 16.162 10.9873 19.5332 10.9873ZM19.3184 14.6494L16.1143 16.3759V16.4316L16.5 17.6377H16.5674L18.832 16.7392V22.7549H16.5674V24.416H22.7168V22.7549H20.6426V14.6494H19.3184Z" fill="#0F4493"/>
<path d="M19.5332 10.9873L19.5335 8.05734H19.5332V10.9873ZM25.6367 19.5332L28.5667 19.5332V19.5332H25.6367ZM19.5332 28.0791V31.009H19.5335L19.5332 28.0791ZM13.4287 19.5332H10.4988V19.5332L13.4287 19.5332ZM19.3184 14.6494V11.7194H18.5792L17.9285 12.0701L19.3184 14.6494ZM16.1143 16.3759L14.7244 13.7966L13.1843 14.6265V16.3759H16.1143ZM16.1143 16.4316H13.1843V16.8888L13.3236 17.3242L16.1143 16.4316ZM16.5 17.6377L13.7093 18.5302L14.361 20.5676H16.5V17.6377ZM16.5674 17.6377V20.5676H17.1273L17.6478 20.3611L16.5674 17.6377ZM18.832 16.7392H21.762V12.4248L17.7516 14.0158L18.832 16.7392ZM18.832 22.7549V25.6848H21.762V22.7549H18.832ZM16.5674 22.7549V19.8249H13.6374V22.7549H16.5674ZM16.5674 24.416H13.6374V27.3459H16.5674V24.416ZM22.7168 24.416V27.3459H25.6467V24.416H22.7168ZM22.7168 22.7549H25.6467V19.8249H22.7168V22.7549ZM20.6426 22.7549H17.7126V25.6848H20.6426V22.7549ZM20.6426 14.6494H23.5725V11.7194H20.6426V14.6494ZM19.5332 10.9873L19.5329 13.9172C20.0266 13.9173 20.7499 14.1925 21.4648 15.1934C22.1756 16.1887 22.7068 17.7137 22.7068 19.5332H25.6367H28.5667C28.5667 16.6332 27.7316 13.8855 26.2334 11.7877C24.7392 9.6956 22.4108 8.05763 19.5335 8.05734L19.5332 10.9873ZM25.6367 19.5332L22.7068 19.5331C22.7067 21.3526 22.1755 22.8776 21.4647 23.8729C20.7498 24.8738 20.0265 25.1491 19.5329 25.1491L19.5332 28.0791L19.5335 31.009C22.4108 31.0087 24.7392 29.3707 26.2333 27.2786C27.7315 25.1808 28.5666 22.4331 28.5667 19.5332L25.6367 19.5332ZM19.5332 28.0791V25.1491C19.0395 25.1491 18.316 24.8739 17.601 23.8729C16.89 22.8776 16.3587 21.3525 16.3586 19.5331L13.4287 19.5332L10.4988 19.5332C10.4988 22.4333 11.3342 25.1812 12.8327 27.279C14.3271 29.3711 16.6558 31.009 19.5332 31.009V28.0791ZM13.4287 19.5332H16.3586C16.3586 17.7137 16.89 16.1887 17.6009 15.1934C18.3159 14.1925 19.0394 13.9172 19.5332 13.9172V10.9873V8.05734C16.6558 8.05734 14.3271 9.6952 12.8326 11.7873C11.3341 13.8851 10.4988 16.633 10.4988 19.5332H13.4287ZM19.3184 14.6494L17.9285 12.0701L14.7244 13.7966L16.1143 16.3759L17.5041 18.9552L20.7082 17.2287L19.3184 14.6494ZM16.1143 16.3759H13.1843V16.4316H16.1143H19.0442V16.3759H16.1143ZM16.1143 16.4316L13.3236 17.3242L13.7093 18.5302L16.5 17.6377L19.2907 16.7451L18.9049 15.539L16.1143 16.4316ZM16.5 17.6377V20.5676H16.5674V17.6377V14.7077H16.5V17.6377ZM16.5674 17.6377L17.6478 20.3611L19.9125 19.4627L18.832 16.7392L17.7516 14.0158L15.4869 14.9142L16.5674 17.6377ZM18.832 16.7392H15.9021V22.7549H18.832H21.762V16.7392H18.832ZM18.832 22.7549V19.8249H16.5674V22.7549V25.6848H18.832V22.7549ZM16.5674 22.7549H13.6374V24.416H16.5674H19.4973V22.7549H16.5674ZM16.5674 24.416V27.3459H22.7168V24.416V21.486H16.5674V24.416ZM22.7168 24.416H25.6467V22.7549H22.7168H19.7869V24.416H22.7168ZM22.7168 22.7549V19.8249H20.6426V22.7549V25.6848H22.7168V22.7549ZM20.6426 22.7549H23.5725V14.6494H20.6426H17.7126V22.7549H20.6426ZM20.6426 14.6494V11.7194H19.3184V14.6494V17.5793H20.6426V14.6494Z" fill="#0F4493" mask="url(#path-2-inside-1_55_9564)"/>
<path d="M6.30664 10.0105C6.30259 10.0205 6.29906 10.0308 6.29492 10.0408C6.0986 10.5147 5.81099 10.9456 5.44824 11.3083C5.0855 11.6711 4.65461 11.9587 4.18066 12.155C4.1708 12.1591 4.16029 12.1618 4.15039 12.1658V10.0105H6.30664Z" fill="#0F4493" stroke="#0F4493" stroke-width="2.92994"/>
<path d="M32.7588 10.0105C32.7628 10.0205 32.7664 10.0308 32.7705 10.0408C32.9668 10.5147 33.2544 10.9456 33.6172 11.3083C33.9799 11.6711 34.4108 11.9587 34.8848 12.155C34.8946 12.1591 34.9051 12.1618 34.915 12.1658V10.0105H32.7588Z" fill="#0F4493" stroke="#0F4493" stroke-width="2.92994"/>
<path d="M6.30664 29.0553C6.30259 29.0453 6.29906 29.035 6.29492 29.0251C6.0986 28.5511 5.81099 28.1202 5.44824 27.7575C5.0855 27.3947 4.65461 27.1071 4.18066 26.9108C4.1708 26.9067 4.16029 26.9041 4.15039 26.9001V29.0553H6.30664Z" fill="#0F4493" stroke="#0F4493" stroke-width="2.92994"/>
<path d="M32.7588 29.0553C32.7628 29.0453 32.7664 29.035 32.7705 29.0251C32.9668 28.5511 33.2544 28.1202 33.6172 27.7575C33.9799 27.3947 34.4108 27.1071 34.8848 26.9108C34.8946 26.9067 34.9051 26.9041 34.915 26.9001V29.0553H32.7588Z" fill="#0F4493" stroke="#0F4493" stroke-width="2.92994"/>
</svg>
