<svg width="40" height="40" viewBox="0 0 40 40" fill="none" xmlns="http://www.w3.org/2000/svg">
<path d="M29.2992 11.657C29.2015 11.6407 29.0876 11.6407 28.9899 11.657C26.7436 11.5756 24.9531 9.73624 24.9531 7.45739C24.9531 5.12972 26.825 3.25781 29.1527 3.25781C31.4804 3.25781 33.3523 5.146 33.3523 7.45739C33.336 9.73624 31.5455 11.5756 29.2992 11.657Z" stroke="#292D32" stroke-width="2.44162" stroke-linecap="round" stroke-linejoin="round"/>
<path d="M27.6226 23.5101C29.8526 23.8844 32.3105 23.4938 34.0359 22.3381C36.331 20.808 36.331 18.3013 34.0359 16.7712C32.2942 15.6155 29.8037 15.2248 27.5737 15.6155" stroke="#292D32" stroke-width="2.44162" stroke-linecap="round" stroke-linejoin="round"/>
<path d="M9.71764 11.657C9.8153 11.6407 9.92924 11.6407 10.0269 11.657C12.2732 11.5756 14.0637 9.73624 14.0637 7.45739C14.0637 5.12972 12.1918 3.25781 9.86413 3.25781C7.53646 3.25781 5.66455 5.146 5.66455 7.45739C5.68083 9.73624 7.47135 11.5756 9.71764 11.657Z" stroke="#292D32" stroke-width="2.44162" stroke-linecap="round" stroke-linejoin="round"/>
<path d="M11.3944 23.5101C9.1644 23.8844 6.70651 23.4938 4.9811 22.3381C2.68599 20.808 2.68599 18.3013 4.9811 16.7712C6.72279 15.6155 9.21323 15.2248 11.4432 15.6155" stroke="#292D32" stroke-width="2.44162" stroke-linecap="round" stroke-linejoin="round"/>
<path d="M19.5326 23.8132C19.4349 23.7969 19.321 23.7969 19.2233 23.8132C16.977 23.7318 15.1865 21.8925 15.1865 19.6136C15.1865 17.286 17.0584 15.4141 19.3861 15.4141C21.7138 15.4141 23.5857 17.3022 23.5857 19.6136C23.5694 21.8925 21.7789 23.7481 19.5326 23.8132Z" stroke="#292D32" stroke-width="2.44162" stroke-linecap="round" stroke-linejoin="round"/>
<path d="M14.796 28.9425C12.5009 30.4726 12.5009 32.9793 14.796 34.5094C17.4004 36.2511 21.6651 36.2511 24.2695 34.5094C26.5646 32.9793 26.5646 30.4726 24.2695 28.9425C21.6814 27.2171 17.4004 27.2171 14.796 28.9425Z" stroke="#292D32" stroke-width="2.44162" stroke-linecap="round" stroke-linejoin="round"/>
</svg>
